<?xml version="1.0" standalone="no"?><!DOCTYPE svg PUBLIC "-//W3C//DTD SVG 1.1//EN" "http://www.w3.org/Graphics/SVG/1.1/DTD/svg11.dtd"><svg t="1503473742104" class="icon" style="" viewBox="0 0 1025 1024" version="1.1" xmlns="http://www.w3.org/2000/svg" p-id="2472" xmlns:xlink="http://www.w3.org/1999/xlink" width="200.1953125" height="200"><defs><style type="text/css"></style></defs><path d="M276.724509 880.582613c0 19.456121-3.526313 37.376259-10.638291 53.81772-7.110955 16.384156-16.782222 30.776957-29.126364 43.122123-12.345166 12.287861-26.90886 22.016433-43.691081 29.126364-16.838503 7.054673-34.531468 10.638291-53.247738 10.638291-19.398816 0-37.318954-3.583618-53.760414-10.638291-16.441461-7.110955-30.776957-16.838503-43.122123-29.126364-12.345166-12.345166-22.016433-26.737968-29.126364-43.122123-7.110955-16.441461-10.638291-34.361599-10.638291-53.81772 0-18.658965 3.526313-36.409235 10.638291-53.190433 7.110955-16.838503 16.782222-31.403221 29.126364-43.691081 12.345166-12.345166 26.681686-22.073738 43.122123-29.126364 16.441461-7.110955 34.361599-10.638291 53.760414-10.638291 18.71627 0 36.409235 3.526313 53.247738 10.638291 16.782222 7.054673 31.345915 16.782222 43.691081 29.126364 12.345166 12.287861 22.016433 26.851555 29.126364 43.691081C273.197172 844.174402 276.724509 861.922624 276.724509 880.582613M97.466845 368.582613c76.91374 0 149.219533 14.734586 216.802768 44.259016s126.57786 69.462025 176.98183 119.864972c50.460252 50.402947 90.396823 109.453854 119.921253 177.038112 29.469172 67.584258 44.202735 139.833769 44.202735 216.802768 0 26.851555-9.500375 49.835012-28.558429 68.893067-19.001773 19.058055-41.984207 28.558429-68.893067 28.558429-26.90886 0-49.835012-9.500375-68.893067-28.558429-19.058055-19.058055-28.558429-42.041512-28.558429-68.893067 0-50.062186-9.556657-97.108688-28.558429-141.197836-19.058055-44.031842-44.998867-82.546018-77.881788-115.370611-32.881898-32.881898-71.338768-58.82271-115.426893-77.881788-44.031842-19.058055-91.078345-28.558429-141.140531-28.558429-26.90886 0-49.835012-9.500375-68.893067-28.558429S0.016373 492.939899 0.016373 466.088344c0-26.90886 9.500375-49.891294 28.558429-68.893067C47.631834 378.140293 70.557986 368.582613 97.466845 368.582613M97.466845 0c85.162612 0 167.139671 11.036357 245.931179 33.05279 78.790484 22.016433 152.518672 53.190433 221.24187 93.52507 68.721151 40.334637 131.299395 88.747253 187.676403 145.123238 56.377008 56.375985 104.732319 118.955252 145.066957 187.619098 40.334637 68.721151 71.508637 142.506644 93.582375 221.297129 22.016433 78.790484 33.05279 160.767544 33.05279 245.931179 0 26.851555-9.556657 49.835012-28.558429 68.893067-19.058055 19.058055-42.041512 28.558429-68.949348 28.558429-26.851555 0-49.835012-9.500375-68.893067-28.558429-19.058055-19.058055-28.558429-42.041512-28.558429-68.893067 0-67.243497-8.761548-132.039245-26.338878-194.389292-17.522072-62.406329-42.211381-120.661104-73.89908-174.819584-31.801287-54.101175-69.859068-103.423511-114.289999-147.854443-44.48619-44.429909-93.753267-82.546018-147.910725-114.289999-54.158481-31.743982-112.412233-56.377008-174.763302-73.955362-62.350047-17.522072-127.146818-26.282596-194.389292-26.282596-26.851555 0-49.835012-9.556657-68.893067-28.558429-19.058055-19.058055-28.558429-42.041512-28.558429-68.949348 0-26.851555 9.500375-49.835012 28.558429-68.893067C47.631834 9.500375 70.557986 0 97.466845 0" p-id="2473"></path></svg>