<?xml version="1.0" standalone="no"?><!DOCTYPE svg PUBLIC "-//W3C//DTD SVG 1.1//EN" "http://www.w3.org/Graphics/SVG/1.1/DTD/svg11.dtd"><svg t="1503460911252" class="icon" style="" viewBox="0 0 1024 1024" version="1.1" xmlns="http://www.w3.org/2000/svg" p-id="997" xmlns:xlink="http://www.w3.org/1999/xlink" width="200" height="200"><defs><style type="text/css"></style></defs><path d="M600.485647 843.294118h-60.235294c0-194.740706-161.310118-353.159529-359.544471-353.15953v-60.235294c231.484235 0 419.779765 185.464471 419.779765 413.394824zM180.705882 210.823529v60.235295c320.873412 0 572.235294 251.361882 572.235294 572.235294h60.235295C813.176471 488.628706 535.371294 210.823529 180.705882 210.823529z m180.705883 542.177883a90.352941 90.352941 0 1 0-180.826353 0A90.352941 90.352941 0 0 0 361.411765 752.941176z m-60.235294 0a30.117647 30.117647 0 1 1-60.235295 0 30.117647 30.117647 0 0 1 60.235295 0zM1024 933.647059v-843.294118c0-49.814588-40.538353-90.352941-90.352941-90.352941h-843.294118C40.538353 0 0 40.538353 0 90.352941v843.294118c0 49.814588 40.538353 90.352941 90.352941 90.352941h843.294118c49.814588 0 90.352941-40.538353 90.352941-90.352941zM933.647059 60.235294a30.117647 30.117647 0 0 1 30.117647 30.117647v843.294118a30.117647 30.117647 0 0 1-30.117647 30.117647h-843.294118a30.117647 30.117647 0 0 1-30.117647-30.117647v-843.294118a30.117647 30.117647 0 0 1 30.117647-30.117647h843.294118z" fill="" p-id="998"></path></svg>